HIERARCHY
ROOT root
{
	OFFSET	0	13.1	24.9
	CHANNELS 6  Xposition Yposition Zposition Xrotation Yrotation Zrotation
	JOINT spine_1
	{
		OFFSET	0	9.99999	0
		CHANNELS 3  Xrotation Yrotation Zrotation
		JOINT spine_2
		{
			OFFSET	0	112	-10
			CHANNELS 3  Xrotation Yrotation Zrotation
			JOINT spine_3
			{
				OFFSET	0	206.5	19.3
				CHANNELS 3  Xrotation Yrotation Zrotation
				JOINT spine_4
				{
					OFFSET	0	110.4	14.6
					CHANNELS 3  Xrotation Yrotation Zrotation
					JOINT neck_1
					{
						OFFSET	0	71.8	-50.3
						CHANNELS 3  Xrotation Yrotation Zrotation
						JOINT neck_2
						{
							OFFSET	0	86.2	-25.8
							CHANNELS 3  Xrotation Yrotation Zrotation
							JOINT head_ee
							{
								OFFSET	0	179.8	-8.7
								CHANNELS 3  Xrotation Yrotation Zrotation
								End Site
								{
									OFFSET	1	0	0
								}
							}
						}
					}
					JOINT left_clavicle
					{
						OFFSET	-43.2	22.4	-70.8
						CHANNELS 3  Xrotation Yrotation Zrotation
						JOINT left_shoulder
						{
							OFFSET	-93.9	-5.79999	48.7
							CHANNELS 3  Xrotation Yrotation Zrotation
							JOINT left_elbow
							{
								OFFSET	-291.4	-30.8	15.2
								CHANNELS 3  Xrotation Yrotation Zrotation
								JOINT left_lowarm_twist
								{
									OFFSET	-110.7	-3.89999	13.6
									CHANNELS 3  Xrotation Yrotation Zrotation
									JOINT left_hand
									{
										OFFSET	-110.7	-3.89999	13.6
										CHANNELS 3  Xrotation Yrotation Zrotation
										JOINT left_ee
										{
											OFFSET	-80.8	-5.10001	12.1
											CHANNELS 3  Xrotation Yrotation Zrotation
											End Site
											{
												OFFSET	1	0	0
											}
										}
									}
								}
							}
						}
					}
					JOINT right_clavicle
					{
						OFFSET	43.2	22.4	-70.8
						CHANNELS 3  Xrotation Yrotation Zrotation
						JOINT right_shoulder
						{
							OFFSET	93.9	-5.79999	48.7
							CHANNELS 3  Xrotation Yrotation Zrotation
							JOINT right_elbow
							{
								OFFSET	291.4	-30.8	15.2
								CHANNELS 3  Xrotation Yrotation Zrotation
								JOINT right_lowarm_twist
								{
									OFFSET	110.7	-3.89999	13.6
									CHANNELS 3  Xrotation Yrotation Zrotation
									JOINT right_hand
									{
										OFFSET	110.7	-3.89999	13.6
										CHANNELS 3  Xrotation Yrotation Zrotation
										JOINT right_ee
										{
											OFFSET	80.8	-5.10001	12.1
											CHANNELS 3  Xrotation Yrotation Zrotation
											End Site
											{
												OFFSET	1	0	0
											}
										}
									}
								}
							}
						}
					}
				}
			}
		}
	}
	JOINT left_hip
	{
		OFFSET	-82.8	-127.5	0.300001
		CHANNELS 3  Xrotation Yrotation Zrotation
		JOINT left_knee
		{
			OFFSET	-28.2	-396.7	2.2
			CHANNELS 3  Xrotation Yrotation Zrotation
			JOINT left_ankle
			{
				OFFSET	-11.7	-411.3	35.4
				CHANNELS 3  Xrotation Yrotation Zrotation
				JOINT left_toes
				{
					OFFSET	0	-60	-88.6
					CHANNELS 3  Xrotation Yrotation Zrotation
					JOINT left_foot_ee
					{
						OFFSET	-22.5	-16.5	-42.2
						CHANNELS 3  Xrotation Yrotation Zrotation
						End Site
						{
							OFFSET	1	0	0
						}
					}
				}
			}
		}
	}
	JOINT right_hip
	{
		OFFSET	82.8	-127.5	0.300001
		CHANNELS 3  Xrotation Yrotation Zrotation
		JOINT right_knee
		{
			OFFSET	28.2	-396.7	2.2
			CHANNELS 3  Xrotation Yrotation Zrotation
			JOINT right_ankle
			{
				OFFSET	11.7	-411.3	35.4
				CHANNELS 3  Xrotation Yrotation Zrotation
				JOINT right_toes
				{
					OFFSET	0	-60	-88.6
					CHANNELS 3  Xrotation Yrotation Zrotation
					JOINT right_foot_ee
					{
						OFFSET	22.5	-16.5	-42.2
						CHANNELS 3  Xrotation Yrotation Zrotation
						End Site
						{
							OFFSET	1	0	0
						}
					}
				}
			}
		}
	}
}
MOTION
Frames: 11
Frame Time: 0.02
2574.0 692.326 -526.993 96.2378 -84.8719 101.357 1.61689 0.182314 -2.01071 1.61908 0.309865 -1.99504 1.60818 0.669363 -1.90481 1.6033 0.360197 -1.98658 -19.5105 7.19046 4.86394 -19.6158 11.3508 7.46832 -0.0 0.0 -0.0 5.20679 24.6995 9.84716 -20.0098 -13.5009 66.1166 0.521429 -14.4832 0.0662568 23.6808 0.218081 -2.99568 5.03057 25.088 43.0188 -0.0 0.0 -0.0 10.6074 -4.17657 -20.6137 -4.7191 14.902 -59.6968 0.615095 16.9461 -0.0916318 -56.3025 4.82683 -4.97127 -4.45781 -4.35347 28.7933 0.0 0.0 0.0 13.2337 -5.7082 -8.73732 -48.9811 -1.13459 7.20632 36.2089 26.3052 -4.82891 -9.43185 0.0 0.0 -0.0 0.0 -0.0 -13.0651 -5.34615 -5.52875 3.86254 0.178222 0.565736 36.3144 11.6653 4.73143 -22.0681 0.0 0.0 0.0 0.0 0.0 
2581.22 691.422 -530.154 99.8435 -84.5972 103.862 1.61625 0.310373 -2.06102 1.6185 0.440865 -2.03711 1.60263 0.806112 -1.92212 1.59781 0.492499 -2.02525 -20.2567 7.11169 5.00131 -20.364 11.2017 7.64982 -0.0 0.0 -0.0 5.11191 25.272 9.6917 -21.2008 -13.6437 65.6395 0.415789 -11.6386 0.0423762 23.2467 0.22528 -2.94071 4.95794 25.3538 42.4419 -0.0 0.0 -0.0 10.6963 -3.14641 -20.8797 -2.99017 16.108 -60.2051 0.648642 17.8133 -0.101653 -56.1609 4.80953 -4.96571 -4.48358 -4.57822 28.8527 0.0 0.0 0.0 16.6716 -6.04007 -8.46104 -50.88 -1.29967 7.44768 34.7961 26.5507 -4.68626 -9.19578 0.0 0.0 -0.0 0.0 -0.0 -13.9361 -5.41957 -5.65371 4.24793 0.198092 0.62151 38.8068 12.0847 4.97356 -21.623 0.0 0.0 0.0 0.0 0.0 
2589.17 692.274 -528.246 99.2446 -84.7 103.236 1.61842 0.275358 -2.04302 1.62065 0.404775 -2.02137 1.60619 0.767609 -1.9133 1.60138 0.455872 -2.01046 -20.5786 6.9803 4.5315 -20.7044 11.2122 7.1988 -0.0 0.0 -0.0 4.87787 25.5672 9.36474 -22.4878 -13.4804 65.2913 0.332961 -9.36617 0.0272754 23.1504 0.226822 -2.9285 4.98113 25.9195 42.6779 -0.0 0.0 -0.0 10.7665 -2.10716 -21.1047 -0.995158 17.383 -60.2887 0.682382 18.677 -0.112216 -56.6771 4.87263 -4.98577 -4.48398 -4.66619 28.8024 0.0 0.0 0.0 18.4469 -6.61461 -8.40889 -52.1028 -1.41019 7.60019 32.0296 26.7589 -4.38637 -9.50832 0.0 0.0 -0.0 0.0 -0.0 -14.17 -5.50635 -5.38475 4.14635 0.192819 0.606822 36.6572 11.9784 4.77207 -22.6359 0.0 0.0 0.0 0.0 0.0 
2595.29 691.529 -528.711 99.4199 -84.5434 103.266 1.5999 0.302297 -1.97355 1.60196 0.427243 -1.95033 1.58724 0.777308 -1.83909 1.58284 0.477162 -1.93872 -21.1356 7.33819 5.0629 -21.2716 11.6928 7.91411 -0.0 0.0 -0.0 4.64759 25.898 9.04618 -23.6113 -13.5089 65.8176 0.32674 -9.19421 0.0262723 22.5715 0.235651 -2.85508 4.9246 27.4563 42.317 -0.0 0.0 -0.0 10.7398 -1.29175 -21.1083 0.785993 18.5315 -60.8174 0.712126 19.4312 -0.121927 -56.9288 4.90347 -4.99535 -4.50658 -4.72543 28.9376 0.0 0.0 0.0 20.0727 -7.04507 -8.09898 -52.1459 -1.41415 7.60553 29.4078 26.9572 -4.0882 -9.84809 0.0 0.0 -0.0 0.0 -0.0 -14.5376 -5.56485 -5.22822 3.56191 0.162983 0.522138 36.5171 12.1689 4.7637 -22.8523 0.0 0.0 0.0 0.0 0.0 
2605.02 688.086 -526.056 99.5077 -84.1941 103.347 1.57039 0.3367 -1.975 1.57244 0.461668 -1.94958 1.55655 0.812012 -1.83161 1.55223 0.512611 -1.93682 -21.2676 7.03399 5.17515 -21.3795 11.0636 7.89668 -0.0 0.0 -0.0 4.42978 25.7943 8.76078 -24.3696 -13.3955 65.4028 0.241082 -6.81044 0.014345 22.5697 0.235677 -2.85486 4.85633 26.6299 41.7192 -0.0 0.0 -0.0 10.9914 -0.349618 -21.6967 2.70183 19.4517 -61.2114 0.735545 20.0201 -0.129831 -56.2227 4.81708 -4.96814 -4.53734 -4.98978 29.0095 0.0 0.0 0.0 22.4315 -8.08017 -7.50835 -49.9375 -1.21673 7.32855 29.2631 26.9242 -4.07019 -9.93183 0.0 0.0 -0.0 0.0 -0.0 -16.0179 -5.51298 -5.62801 3.77943 0.173986 0.553691 38.6603 12.2148 4.96385 -22.2184 0.0 0.0 0.0 0.0 0.0 
2612.97 690.959 -525.208 97.3284 -83.9776 101.011 1.36531 0.257482 -1.88467 1.36721 0.376865 -1.86448 1.3549 0.719162 -1.76103 1.35083 0.432066 -1.85247 -21.105 7.1289 5.16929 -21.2208 11.2341 7.91414 -0.0 0.0 -0.0 4.06003 25.899 8.26992 -25.4005 -13.0372 66.1384 0.214161 -6.05596 0.0113286 22.6477 0.234531 -2.86475 4.83876 26.8529 41.5945 -0.0 0.0 -0.0 10.9003 0.544823 -21.5617 4.25357 20.2942 -61.7302 0.758176 20.585 -0.137684 -56.2771 4.82373 -4.97028 -4.6175 -5.04866 29.5828 0.0 0.0 0.0 23.9654 -8.27782 -6.19457 -45.5544 -0.8574 6.75767 26.1295 26.954 -3.6911 -10.5868 0.0 0.0 -0.0 0.0 -0.0 -16.7423 -5.44504 -5.70429 3.44124 0.15693 0.504617 37.1479 11.9409 4.81741 -22.7687 0.0 0.0 0.0 0.0 0.0 
2616.78 687.199 -520.771 95.2178 -84.6674 98.8993 1.29977 0.120051 -1.86575 1.30168 0.238509 -1.85434 1.29403 0.583177 -1.77636 1.28974 0.295366 -1.84614 -19.7135 7.57281 5.68738 -19.8067 11.6873 8.41152 -0.0 0.0 -0.0 3.7078 25.5693 7.80785 -25.9412 -12.9273 66.5721 0.21629 -6.11571 0.0115543 22.3063 0.239448 -2.82142 4.87019 28.3086 41.9234 -0.0 0.0 -0.0 11.1626 3.92318 -22.2889 6.21237 21.0587 -62.1329 0.780702 21.1432 -0.145706 -55.9636 4.78546 -4.95789 -4.48157 -5.2016 28.4587 0.0 0.0 0.0 25.2148 -9.95123 -6.53151 -39.7696 -0.452173 5.96601 22.9282 26.9392 -3.286 -11.3796 0.0 0.0 -0.0 0.0 -0.0 -16.2108 -5.2042 -6.04922 3.46576 0.158157 0.508178 35.6646 11.8158 4.67256 -23.3073 0.0 0.0 0.0 0.0 0.0 
2629.27 682.129 -517.529 98.8646 -85.6876 102.427 1.42546 0.207737 -1.81387 1.42723 0.322718 -1.79698 1.41707 0.651453 -1.70558 1.41321 0.373959 -1.78703 -19.5822 8.29162 6.56502 -19.6725 12.6092 9.50377 -0.0 0.0 -0.0 2.98483 25.3145 6.84808 -26.9379 -12.7644 67.1974 0.249784 -7.05386 0.0153953 21.8318 0.245852 -2.76115 4.767 30.8725 41.1834 -0.0 0.0 -0.0 11.2589 6.45615 -22.5776 7.35829 21.733 -62.5729 0.804302 21.7236 -0.15433 -56.0925 4.80119 -4.96301 -4.46962 -5.19752 28.3711 0.0 0.0 0.0 26.4299 -11.265 -6.6238 -33.0274 -0.0837487 4.99838 18.776 27.0999 -2.74049 -11.9904 0.0 0.0 -0.0 0.0 -0.0 -16.1127 -4.9111 -5.99256 3.77775 0.173901 0.553447 35.8872 11.316 4.68172 -23.6421 0.0 0.0 0.0 0.0 0.0 
2639.79 675.167 -517.65 101.08 -85.9775 104.19 1.43584 0.277062 -1.59279 1.43717 0.377841 -1.57194 1.42672 0.663471 -1.47433 1.42394 0.422333 -1.56058 -18.7749 8.13674 6.92154 -18.8176 12.0164 9.66105 -0.0 0.0 -0.0 2.39671 25.0829 6.06122 -27.7363 -12.6102 67.6946 0.232279 -6.56397 0.0133198 21.4556 0.250576 -2.71333 4.7652 30.5553 41.1673 -0.0 0.0 -0.0 11.4433 8.09174 -23.0138 8.96873 22.5247 -62.5957 0.82329 22.1871 -0.16143 -56.03 4.79357 -4.96053 -4.4084 -4.89477 28.0941 0.0 0.0 0.0 27.3218 -12.2235 -6.67566 -27.5956 0.128623 4.19216 15.681 27.1362 -2.31622 -12.4134 0.0 0.0 -0.0 0.0 -0.0 -15.9726 -4.7913 -5.6082 3.22647 0.14625 0.473401 35.5383 11.5428 4.65346 -23.7046 0.0 0.0 0.0 0.0 0.0 
2646.15 672.509 -516.326 103.572 -86.6861 106.561 1.51136 0.280832 -1.53059 1.51258 0.377646 -1.50962 1.50253 0.649814 -1.41399 1.49998 0.418373 -1.49885 -17.3947 8.67203 7.76742 -17.3893 12.3839 10.4734 -0.0 0.0 -0.0 2.10577 25.0428 5.67311 -28.0947 -12.3968 67.675 0.265617 -7.49602 0.0174002 20.8888 0.257099 -2.64122 4.76721 31.4071 41.1852 -0.0 0.0 -0.0 11.5282 9.31456 -23.2135 10.4643 23.2748 -63.034 0.895529 23.9227 -0.189723 -56.0209 4.79245 -4.96017 -4.32817 -4.83822 27.5269 0.0 0.0 0.0 27.2323 -12.6898 -7.2653 -20.5981 0.288049 3.13081 12.6239 27.2251 -1.8856 -12.7233 0.0 0.0 -0.0 0.0 -0.0 -15.3461 -4.67622 -5.53437 2.79415 0.125107 0.410446 34.4644 10.5022 4.52308 -23.665 0.0 0.0 0.0 0.0 0.0 
2660.67 670.264 -515.78 106.796 -87.3225 109.803 1.58319 0.275498 -1.53817 1.58443 0.372806 -1.51753 1.57444 0.64473 -1.42347 1.57185 0.411856 -1.5074 -16.3805 9.73102 8.55454 -16.3586 13.8063 11.4575 -0.0 0.0 -0.0 1.96696 25.101 5.49165 -29.5621 -12.024 67.9961 0.284256 -8.01542 0.0199156 20.9009 0.256967 -2.64276 4.68113 30.5213 40.5317 -0.0 0.0 -0.0 11.5713 9.9957 -23.3115 11.5209 24.0635 -63.471 0.942477 25.0263 -0.209174 -56.0509 4.79612 -4.96136 -4.32238 -5.08515 27.3362 0.0 0.0 0.0 28.397 -12.8996 -7.66005 -18.6213 0.309498 2.82827 10.7477 27.2843 -1.61572 -13.0037 0.0 0.0 -0.0 0.0 -0.0 -15.5971 -4.59235 -5.36182 1.83976 0.0801209 0.270929 35.5113 9.53199 4.60446 -23.1355 0.0 0.0 0.0 0.0 0.0 
